<mxfile host="drawio-plugin" agent="Mozilla/5.0 (Macintosh; Intel Mac OS X 10_15_7) AppleWebKit/537.36 (KHTML, like Gecko) Chrome/122.0.0.0 Safari/537.36" modified="2024-11-09T09:22:08.068Z" etag="Xq-rT6aNOEKI_-F_BLMP" version="22.1.22" type="embed">
  <diagram name="Side-1" id="iUmJYM5H5TX0otE7iVkQ">
    <mxGraphModel dx="638" dy="296" grid="1" gridSize="10" guides="1" tooltips="1" connect="1" arrows="1" fold="1" page="1" pageScale="1" pageWidth="827" pageHeight="1169" math="0" shadow="0">
      <root>
        <mxCell id="0" />
        <mxCell id="1" parent="0" />
        <mxCell id="2" value="user" style="shape=table;startSize=25;container=1;collapsible=0;childLayout=tableLayout;fixedRows=1;rowLines=1;fontStyle=1;align=center;resizeLast=1;" parent="1" vertex="1">
          <mxGeometry x="40" y="110" width="230" height="90" as="geometry" />
        </mxCell>
        <mxCell id="3" style="shape=tableRow;horizontal=0;startSize=0;swimlaneHead=0;swimlaneBody=0;fillColor=none;collapsible=0;dropTarget=0;points=[[0,0.5],[1,0.5]];portConstraint=eastwest;top=0;left=0;right=0;bottom=0;" parent="2" vertex="1">
          <mxGeometry y="25" width="230" height="22" as="geometry" />
        </mxCell>
        <mxCell id="4" value="PK" style="shape=partialRectangle;connectable=0;fillColor=none;top=0;left=0;bottom=0;right=0;align=left;spacingLeft=2;overflow=hidden;fontSize=11;" parent="3" vertex="1">
          <mxGeometry width="36" height="22" as="geometry">
            <mxRectangle width="36" height="22" as="alternateBounds" />
          </mxGeometry>
        </mxCell>
        <mxCell id="5" value="id, Integer, autoincrement" style="shape=partialRectangle;connectable=0;fillColor=none;top=0;left=0;bottom=0;right=0;align=left;spacingLeft=2;overflow=hidden;fontSize=11;" parent="3" vertex="1">
          <mxGeometry x="36" width="194" height="22" as="geometry">
            <mxRectangle width="194" height="22" as="alternateBounds" />
          </mxGeometry>
        </mxCell>
        <mxCell id="6" style="shape=tableRow;horizontal=0;startSize=0;swimlaneHead=0;swimlaneBody=0;fillColor=none;collapsible=0;dropTarget=0;points=[[0,0.5],[1,0.5]];portConstraint=eastwest;top=0;left=0;right=0;bottom=0;" parent="2" vertex="1">
          <mxGeometry y="47" width="230" height="22" as="geometry" />
        </mxCell>
        <mxCell id="7" value="" style="shape=partialRectangle;connectable=0;fillColor=none;top=0;left=0;bottom=0;right=0;align=left;spacingLeft=2;overflow=hidden;fontSize=11;" parent="6" vertex="1">
          <mxGeometry width="36" height="22" as="geometry">
            <mxRectangle width="36" height="22" as="alternateBounds" />
          </mxGeometry>
        </mxCell>
        <mxCell id="8" value="user_name, VARCHAR(255)" style="shape=partialRectangle;connectable=0;fillColor=none;top=0;left=0;bottom=0;right=0;align=left;spacingLeft=2;overflow=hidden;fontSize=11;" parent="6" vertex="1">
          <mxGeometry x="36" width="194" height="22" as="geometry">
            <mxRectangle width="194" height="22" as="alternateBounds" />
          </mxGeometry>
        </mxCell>
        <mxCell id="9" style="shape=tableRow;horizontal=0;startSize=0;swimlaneHead=0;swimlaneBody=0;fillColor=none;collapsible=0;dropTarget=0;points=[[0,0.5],[1,0.5]];portConstraint=eastwest;top=0;left=0;right=0;bottom=0;" parent="2" vertex="1">
          <mxGeometry y="69" width="230" height="21" as="geometry" />
        </mxCell>
        <mxCell id="10" value="" style="shape=partialRectangle;connectable=0;fillColor=none;top=0;left=0;bottom=0;right=0;align=left;spacingLeft=2;overflow=hidden;fontSize=11;" parent="9" vertex="1">
          <mxGeometry width="36" height="21" as="geometry">
            <mxRectangle width="36" height="21" as="alternateBounds" />
          </mxGeometry>
        </mxCell>
        <mxCell id="11" value="user_password, VARCHAR(255)" style="shape=partialRectangle;connectable=0;fillColor=none;top=0;left=0;bottom=0;right=0;align=left;spacingLeft=2;overflow=hidden;fontSize=11;" parent="9" vertex="1">
          <mxGeometry x="36" width="194" height="21" as="geometry">
            <mxRectangle width="194" height="21" as="alternateBounds" />
          </mxGeometry>
        </mxCell>
        <mxCell id="krktDHk4n1So4Y8UEjge-22" value="wish" style="shape=table;startSize=25;container=1;collapsible=0;childLayout=tableLayout;fixedRows=1;rowLines=1;fontStyle=1;align=center;resizeLast=1;" parent="1" vertex="1">
          <mxGeometry x="360" y="320" width="239" height="155" as="geometry" />
        </mxCell>
        <mxCell id="krktDHk4n1So4Y8UEjge-23" style="shape=tableRow;horizontal=0;startSize=0;swimlaneHead=0;swimlaneBody=0;fillColor=none;collapsible=0;dropTarget=0;points=[[0,0.5],[1,0.5]];portConstraint=eastwest;top=0;left=0;right=0;bottom=0;" parent="krktDHk4n1So4Y8UEjge-22" vertex="1">
          <mxGeometry y="25" width="239" height="20" as="geometry" />
        </mxCell>
        <mxCell id="krktDHk4n1So4Y8UEjge-24" value="PK" style="shape=partialRectangle;connectable=0;fillColor=none;top=0;left=0;bottom=0;right=0;align=left;spacingLeft=2;overflow=hidden;fontSize=11;" parent="krktDHk4n1So4Y8UEjge-23" vertex="1">
          <mxGeometry width="48" height="20" as="geometry">
            <mxRectangle width="48" height="20" as="alternateBounds" />
          </mxGeometry>
        </mxCell>
        <mxCell id="krktDHk4n1So4Y8UEjge-25" value="id, Integer, autoincrement" style="shape=partialRectangle;connectable=0;fillColor=none;top=0;left=0;bottom=0;right=0;align=left;spacingLeft=2;overflow=hidden;fontSize=11;" parent="krktDHk4n1So4Y8UEjge-23" vertex="1">
          <mxGeometry x="48" width="191" height="20" as="geometry">
            <mxRectangle width="191" height="20" as="alternateBounds" />
          </mxGeometry>
        </mxCell>
        <mxCell id="krktDHk4n1So4Y8UEjge-26" style="shape=tableRow;horizontal=0;startSize=0;swimlaneHead=0;swimlaneBody=0;fillColor=none;collapsible=0;dropTarget=0;points=[[0,0.5],[1,0.5]];portConstraint=eastwest;top=0;left=0;right=0;bottom=0;" parent="krktDHk4n1So4Y8UEjge-22" vertex="1">
          <mxGeometry y="45" width="239" height="22" as="geometry" />
        </mxCell>
        <mxCell id="krktDHk4n1So4Y8UEjge-27" value="" style="shape=partialRectangle;connectable=0;fillColor=none;top=0;left=0;bottom=0;right=0;align=left;spacingLeft=2;overflow=hidden;fontSize=11;" parent="krktDHk4n1So4Y8UEjge-26" vertex="1">
          <mxGeometry width="48" height="22" as="geometry">
            <mxRectangle width="48" height="22" as="alternateBounds" />
          </mxGeometry>
        </mxCell>
        <mxCell id="krktDHk4n1So4Y8UEjge-28" value="wish_name, VARCHAR(255)" style="shape=partialRectangle;connectable=0;fillColor=none;top=0;left=0;bottom=0;right=0;align=left;spacingLeft=2;overflow=hidden;fontSize=11;" parent="krktDHk4n1So4Y8UEjge-26" vertex="1">
          <mxGeometry x="48" width="191" height="22" as="geometry">
            <mxRectangle width="191" height="22" as="alternateBounds" />
          </mxGeometry>
        </mxCell>
        <mxCell id="krktDHk4n1So4Y8UEjge-29" style="shape=tableRow;horizontal=0;startSize=0;swimlaneHead=0;swimlaneBody=0;fillColor=none;collapsible=0;dropTarget=0;points=[[0,0.5],[1,0.5]];portConstraint=eastwest;top=0;left=0;right=0;bottom=0;" parent="krktDHk4n1So4Y8UEjge-22" vertex="1">
          <mxGeometry y="67" width="239" height="22" as="geometry" />
        </mxCell>
        <mxCell id="krktDHk4n1So4Y8UEjge-30" value="" style="shape=partialRectangle;connectable=0;fillColor=none;top=0;left=0;bottom=0;right=0;align=left;spacingLeft=2;overflow=hidden;fontSize=11;" parent="krktDHk4n1So4Y8UEjge-29" vertex="1">
          <mxGeometry width="48" height="22" as="geometry">
            <mxRectangle width="48" height="22" as="alternateBounds" />
          </mxGeometry>
        </mxCell>
        <mxCell id="krktDHk4n1So4Y8UEjge-31" value="wish_url, VARCHAR(255)" style="shape=partialRectangle;connectable=0;fillColor=none;top=0;left=0;bottom=0;right=0;align=left;spacingLeft=2;overflow=hidden;fontSize=11;" parent="krktDHk4n1So4Y8UEjge-29" vertex="1">
          <mxGeometry x="48" width="191" height="22" as="geometry">
            <mxRectangle width="191" height="22" as="alternateBounds" />
          </mxGeometry>
        </mxCell>
        <mxCell id="krktDHk4n1So4Y8UEjge-35" style="shape=tableRow;horizontal=0;startSize=0;swimlaneHead=0;swimlaneBody=0;fillColor=none;collapsible=0;dropTarget=0;points=[[0,0.5],[1,0.5]];portConstraint=eastwest;top=0;left=0;right=0;bottom=0;" parent="krktDHk4n1So4Y8UEjge-22" vertex="1">
          <mxGeometry y="89" width="239" height="22" as="geometry" />
        </mxCell>
        <mxCell id="krktDHk4n1So4Y8UEjge-36" style="shape=partialRectangle;connectable=0;fillColor=none;top=0;left=0;bottom=0;right=0;align=left;spacingLeft=2;overflow=hidden;fontSize=11;" parent="krktDHk4n1So4Y8UEjge-35" vertex="1">
          <mxGeometry width="48" height="22" as="geometry">
            <mxRectangle width="48" height="22" as="alternateBounds" />
          </mxGeometry>
        </mxCell>
        <mxCell id="krktDHk4n1So4Y8UEjge-37" value="wish_price, FLOAT(15)" style="shape=partialRectangle;connectable=0;fillColor=none;top=0;left=0;bottom=0;right=0;align=left;spacingLeft=2;overflow=hidden;fontSize=11;" parent="krktDHk4n1So4Y8UEjge-35" vertex="1">
          <mxGeometry x="48" width="191" height="22" as="geometry">
            <mxRectangle width="191" height="22" as="alternateBounds" />
          </mxGeometry>
        </mxCell>
        <mxCell id="krktDHk4n1So4Y8UEjge-38" style="shape=tableRow;horizontal=0;startSize=0;swimlaneHead=0;swimlaneBody=0;fillColor=none;collapsible=0;dropTarget=0;points=[[0,0.5],[1,0.5]];portConstraint=eastwest;top=0;left=0;right=0;bottom=0;" parent="krktDHk4n1So4Y8UEjge-22" vertex="1">
          <mxGeometry y="111" width="239" height="22" as="geometry" />
        </mxCell>
        <mxCell id="krktDHk4n1So4Y8UEjge-39" style="shape=partialRectangle;connectable=0;fillColor=none;top=0;left=0;bottom=0;right=0;align=left;spacingLeft=2;overflow=hidden;fontSize=11;" parent="krktDHk4n1So4Y8UEjge-38" vertex="1">
          <mxGeometry width="48" height="22" as="geometry">
            <mxRectangle width="48" height="22" as="alternateBounds" />
          </mxGeometry>
        </mxCell>
        <mxCell id="krktDHk4n1So4Y8UEjge-40" value="wish_reserved, TINYINT" style="shape=partialRectangle;connectable=0;fillColor=none;top=0;left=0;bottom=0;right=0;align=left;spacingLeft=2;overflow=hidden;fontSize=11;" parent="krktDHk4n1So4Y8UEjge-38" vertex="1">
          <mxGeometry x="48" width="191" height="22" as="geometry">
            <mxRectangle width="191" height="22" as="alternateBounds" />
          </mxGeometry>
        </mxCell>
        <mxCell id="krktDHk4n1So4Y8UEjge-41" style="shape=tableRow;horizontal=0;startSize=0;swimlaneHead=0;swimlaneBody=0;fillColor=none;collapsible=0;dropTarget=0;points=[[0,0.5],[1,0.5]];portConstraint=eastwest;top=0;left=0;right=0;bottom=0;" parent="krktDHk4n1So4Y8UEjge-22" vertex="1">
          <mxGeometry y="133" width="239" height="22" as="geometry" />
        </mxCell>
        <mxCell id="krktDHk4n1So4Y8UEjge-42" value="FK" style="shape=partialRectangle;connectable=0;fillColor=none;top=0;left=0;bottom=0;right=0;align=left;spacingLeft=2;overflow=hidden;fontSize=11;" parent="krktDHk4n1So4Y8UEjge-41" vertex="1">
          <mxGeometry width="48" height="22" as="geometry">
            <mxRectangle width="48" height="22" as="alternateBounds" />
          </mxGeometry>
        </mxCell>
        <mxCell id="krktDHk4n1So4Y8UEjge-43" value="wish_list_id, INTEGER" style="shape=partialRectangle;connectable=0;fillColor=none;top=0;left=0;bottom=0;right=0;align=left;spacingLeft=2;overflow=hidden;fontSize=11;" parent="krktDHk4n1So4Y8UEjge-41" vertex="1">
          <mxGeometry x="48" width="191" height="22" as="geometry">
            <mxRectangle width="191" height="22" as="alternateBounds" />
          </mxGeometry>
        </mxCell>
        <mxCell id="krktDHk4n1So4Y8UEjge-47" value="wish_list" style="shape=table;startSize=25;container=1;collapsible=0;childLayout=tableLayout;fixedRows=1;rowLines=1;fontStyle=1;align=center;resizeLast=1;" parent="1" vertex="1">
          <mxGeometry x="40" y="320" width="230" height="89" as="geometry" />
        </mxCell>
        <mxCell id="krktDHk4n1So4Y8UEjge-48" style="shape=tableRow;horizontal=0;startSize=0;swimlaneHead=0;swimlaneBody=0;fillColor=none;collapsible=0;dropTarget=0;points=[[0,0.5],[1,0.5]];portConstraint=eastwest;top=0;left=0;right=0;bottom=0;" parent="krktDHk4n1So4Y8UEjge-47" vertex="1">
          <mxGeometry y="25" width="230" height="22" as="geometry" />
        </mxCell>
        <mxCell id="krktDHk4n1So4Y8UEjge-49" value="PK" style="shape=partialRectangle;connectable=0;fillColor=none;top=0;left=0;bottom=0;right=0;align=left;spacingLeft=2;overflow=hidden;fontSize=11;" parent="krktDHk4n1So4Y8UEjge-48" vertex="1">
          <mxGeometry width="48" height="22" as="geometry">
            <mxRectangle width="48" height="22" as="alternateBounds" />
          </mxGeometry>
        </mxCell>
        <mxCell id="krktDHk4n1So4Y8UEjge-50" value="id, Integer, autoincrement" style="shape=partialRectangle;connectable=0;fillColor=none;top=0;left=0;bottom=0;right=0;align=left;spacingLeft=2;overflow=hidden;fontSize=11;" parent="krktDHk4n1So4Y8UEjge-48" vertex="1">
          <mxGeometry x="48" width="182" height="22" as="geometry">
            <mxRectangle width="182" height="22" as="alternateBounds" />
          </mxGeometry>
        </mxCell>
        <mxCell id="krktDHk4n1So4Y8UEjge-51" style="shape=tableRow;horizontal=0;startSize=0;swimlaneHead=0;swimlaneBody=0;fillColor=none;collapsible=0;dropTarget=0;points=[[0,0.5],[1,0.5]];portConstraint=eastwest;top=0;left=0;right=0;bottom=0;" parent="krktDHk4n1So4Y8UEjge-47" vertex="1">
          <mxGeometry y="47" width="230" height="20" as="geometry" />
        </mxCell>
        <mxCell id="krktDHk4n1So4Y8UEjge-52" value="FK" style="shape=partialRectangle;connectable=0;fillColor=none;top=0;left=0;bottom=0;right=0;align=left;spacingLeft=2;overflow=hidden;fontSize=11;" parent="krktDHk4n1So4Y8UEjge-51" vertex="1">
          <mxGeometry width="48" height="20" as="geometry">
            <mxRectangle width="48" height="20" as="alternateBounds" />
          </mxGeometry>
        </mxCell>
        <mxCell id="krktDHk4n1So4Y8UEjge-53" value="user_id, INTEGER" style="shape=partialRectangle;connectable=0;fillColor=none;top=0;left=0;bottom=0;right=0;align=left;spacingLeft=2;overflow=hidden;fontSize=11;" parent="krktDHk4n1So4Y8UEjge-51" vertex="1">
          <mxGeometry x="48" width="182" height="20" as="geometry">
            <mxRectangle width="182" height="20" as="alternateBounds" />
          </mxGeometry>
        </mxCell>
        <mxCell id="krktDHk4n1So4Y8UEjge-54" style="shape=tableRow;horizontal=0;startSize=0;swimlaneHead=0;swimlaneBody=0;fillColor=none;collapsible=0;dropTarget=0;points=[[0,0.5],[1,0.5]];portConstraint=eastwest;top=0;left=0;right=0;bottom=0;" parent="krktDHk4n1So4Y8UEjge-47" vertex="1">
          <mxGeometry y="67" width="230" height="22" as="geometry" />
        </mxCell>
        <mxCell id="krktDHk4n1So4Y8UEjge-55" value="" style="shape=partialRectangle;connectable=0;fillColor=none;top=0;left=0;bottom=0;right=0;align=left;spacingLeft=2;overflow=hidden;fontSize=11;" parent="krktDHk4n1So4Y8UEjge-54" vertex="1">
          <mxGeometry width="48" height="22" as="geometry">
            <mxRectangle width="48" height="22" as="alternateBounds" />
          </mxGeometry>
        </mxCell>
        <mxCell id="krktDHk4n1So4Y8UEjge-56" value="list_name, VARCHAR(255)" style="shape=partialRectangle;connectable=0;fillColor=none;top=0;left=0;bottom=0;right=0;align=left;spacingLeft=2;overflow=hidden;fontSize=11;" parent="krktDHk4n1So4Y8UEjge-54" vertex="1">
          <mxGeometry x="48" width="182" height="22" as="geometry">
            <mxRectangle width="182" height="22" as="alternateBounds" />
          </mxGeometry>
        </mxCell>
        <mxCell id="krktDHk4n1So4Y8UEjge-69" value="" style="endArrow=ERone;html=1;rounded=0;entryX=0.461;entryY=0.952;entryDx=0;entryDy=0;entryPerimeter=0;exitX=0.47;exitY=0.011;exitDx=0;exitDy=0;exitPerimeter=0;endFill=0;startArrow=ERzeroToMany;startFill=0;" parent="1" source="krktDHk4n1So4Y8UEjge-47" target="9" edge="1">
          <mxGeometry width="50" height="50" relative="1" as="geometry">
            <mxPoint x="140" y="270" as="sourcePoint" />
            <mxPoint x="140" y="230" as="targetPoint" />
          </mxGeometry>
        </mxCell>
        <mxCell id="krktDHk4n1So4Y8UEjge-70" value="" style="endArrow=ERone;html=1;rounded=0;entryX=1;entryY=0.5;entryDx=0;entryDy=0;exitX=0;exitY=0.5;exitDx=0;exitDy=0;endFill=0;startArrow=ERzeroToMany;startFill=0;" parent="1" target="krktDHk4n1So4Y8UEjge-48" edge="1">
          <mxGeometry width="50" height="50" relative="1" as="geometry">
            <mxPoint x="360" y="356" as="sourcePoint" />
            <mxPoint x="330" y="210" as="targetPoint" />
          </mxGeometry>
        </mxCell>
        <mxCell id="krktDHk4n1So4Y8UEjge-74" value="wish_item_reservation" style="shape=table;startSize=25;container=1;collapsible=0;childLayout=tableLayout;fixedRows=1;rowLines=1;fontStyle=1;align=center;resizeLast=1;" parent="1" vertex="1">
          <mxGeometry x="360" y="110" width="260" height="91" as="geometry" />
        </mxCell>
        <mxCell id="krktDHk4n1So4Y8UEjge-75" style="shape=tableRow;horizontal=0;startSize=0;swimlaneHead=0;swimlaneBody=0;fillColor=none;collapsible=0;dropTarget=0;points=[[0,0.5],[1,0.5]];portConstraint=eastwest;top=0;left=0;right=0;bottom=0;" parent="krktDHk4n1So4Y8UEjge-74" vertex="1">
          <mxGeometry y="25" width="260" height="22" as="geometry" />
        </mxCell>
        <mxCell id="krktDHk4n1So4Y8UEjge-76" value="PK" style="shape=partialRectangle;connectable=0;fillColor=none;top=0;left=0;bottom=0;right=0;align=left;spacingLeft=2;overflow=hidden;fontSize=11;" parent="krktDHk4n1So4Y8UEjge-75" vertex="1">
          <mxGeometry width="48" height="22" as="geometry">
            <mxRectangle width="48" height="22" as="alternateBounds" />
          </mxGeometry>
        </mxCell>
        <mxCell id="krktDHk4n1So4Y8UEjge-77" value="id, Integer, autoincrement" style="shape=partialRectangle;connectable=0;fillColor=none;top=0;left=0;bottom=0;right=0;align=left;spacingLeft=2;overflow=hidden;fontSize=11;" parent="krktDHk4n1So4Y8UEjge-75" vertex="1">
          <mxGeometry x="48" width="212" height="22" as="geometry">
            <mxRectangle width="212" height="22" as="alternateBounds" />
          </mxGeometry>
        </mxCell>
        <mxCell id="krktDHk4n1So4Y8UEjge-78" style="shape=tableRow;horizontal=0;startSize=0;swimlaneHead=0;swimlaneBody=0;fillColor=none;collapsible=0;dropTarget=0;points=[[0,0.5],[1,0.5]];portConstraint=eastwest;top=0;left=0;right=0;bottom=0;" parent="krktDHk4n1So4Y8UEjge-74" vertex="1">
          <mxGeometry y="47" width="260" height="22" as="geometry" />
        </mxCell>
        <mxCell id="krktDHk4n1So4Y8UEjge-79" value="FK" style="shape=partialRectangle;connectable=0;fillColor=none;top=0;left=0;bottom=0;right=0;align=left;spacingLeft=2;overflow=hidden;fontSize=11;" parent="krktDHk4n1So4Y8UEjge-78" vertex="1">
          <mxGeometry width="48" height="22" as="geometry">
            <mxRectangle width="48" height="22" as="alternateBounds" />
          </mxGeometry>
        </mxCell>
        <mxCell id="krktDHk4n1So4Y8UEjge-80" value="wish_id, INTEGER" style="shape=partialRectangle;connectable=0;fillColor=none;top=0;left=0;bottom=0;right=0;align=left;spacingLeft=2;overflow=hidden;fontSize=11;" parent="krktDHk4n1So4Y8UEjge-78" vertex="1">
          <mxGeometry x="48" width="212" height="22" as="geometry">
            <mxRectangle width="212" height="22" as="alternateBounds" />
          </mxGeometry>
        </mxCell>
        <mxCell id="krktDHk4n1So4Y8UEjge-81" style="shape=tableRow;horizontal=0;startSize=0;swimlaneHead=0;swimlaneBody=0;fillColor=none;collapsible=0;dropTarget=0;points=[[0,0.5],[1,0.5]];portConstraint=eastwest;top=0;left=0;right=0;bottom=0;" parent="krktDHk4n1So4Y8UEjge-74" vertex="1">
          <mxGeometry y="69" width="260" height="22" as="geometry" />
        </mxCell>
        <mxCell id="krktDHk4n1So4Y8UEjge-82" value="FK" style="shape=partialRectangle;connectable=0;fillColor=none;top=0;left=0;bottom=0;right=0;align=left;spacingLeft=2;overflow=hidden;fontSize=11;" parent="krktDHk4n1So4Y8UEjge-81" vertex="1">
          <mxGeometry width="48" height="22" as="geometry">
            <mxRectangle width="48" height="22" as="alternateBounds" />
          </mxGeometry>
        </mxCell>
        <mxCell id="krktDHk4n1So4Y8UEjge-83" value="user_id, INTEGER" style="shape=partialRectangle;connectable=0;fillColor=none;top=0;left=0;bottom=0;right=0;align=left;spacingLeft=2;overflow=hidden;fontSize=11;" parent="krktDHk4n1So4Y8UEjge-81" vertex="1">
          <mxGeometry x="48" width="212" height="22" as="geometry">
            <mxRectangle width="212" height="22" as="alternateBounds" />
          </mxGeometry>
        </mxCell>
        <mxCell id="krktDHk4n1So4Y8UEjge-84" value="" style="endArrow=ERone;html=1;rounded=0;endFill=0;startArrow=ERzeroToOne;startFill=0;entryX=1;entryY=0.5;entryDx=0;entryDy=0;exitX=0;exitY=0.5;exitDx=0;exitDy=0;" parent="1" source="krktDHk4n1So4Y8UEjge-75" target="3" edge="1">
          <mxGeometry width="50" height="50" relative="1" as="geometry">
            <mxPoint x="460" y="140" as="sourcePoint" />
            <mxPoint x="390" y="230" as="targetPoint" />
          </mxGeometry>
        </mxCell>
        <mxCell id="krktDHk4n1So4Y8UEjge-85" value="" style="endArrow=ERone;html=1;rounded=0;endFill=0;startArrow=ERzeroToOne;startFill=0;entryX=0.5;entryY=0;entryDx=0;entryDy=0;exitX=0.46;exitY=0.955;exitDx=0;exitDy=0;exitPerimeter=0;" parent="1" source="krktDHk4n1So4Y8UEjge-81" target="krktDHk4n1So4Y8UEjge-22" edge="1">
          <mxGeometry width="50" height="50" relative="1" as="geometry">
            <mxPoint x="840" y="200" as="sourcePoint" />
            <mxPoint x="580" y="423" as="targetPoint" />
            <Array as="points" />
          </mxGeometry>
        </mxCell>
        <mxCell id="12" value="Text" style="text;strokeColor=none;align=center;fillColor=none;html=1;verticalAlign=middle;whiteSpace=wrap;rounded=0;" vertex="1" parent="1">
          <mxGeometry x="160" y="250" width="60" height="30" as="geometry" />
        </mxCell>
      </root>
    </mxGraphModel>
  </diagram>
</mxfile>
